<svg xmlns="http://www.w3.org/2000/svg" viewBox="0 0 24 24">
  <symbol id="attack" fill="#e32e12">
    <path d="M6.92,5H5L14,14L15,13.06M19.96,19.12L19.12,19.96C18.73,20.35 18.1,20.35 17.71,19.96L14.59,16.84L11.91,19.5L10.5,18.09L11.92,16.67L3,7.75V3H7.75L16.67,11.92L18.09,10.5L19.5,11.91L16.83,14.58L19.95,17.7C20.35,18.1 20.35,18.73 19.96,19.12Z" />
  </symbol>
  <symbol id="defense" fill="#3049d9">
    <path d="M12,1L3,5V11C3,16.55 6.84,21.74 12,23C17.16,21.74 21,16.55 21,11V5L12,1Z" />
  <symbol id="hp" fill="#6de067">
    <path d="M18,14H14V18H10V14H6V10H10V6H14V10H18M19,3H5C3.89,3 3,3.89 3,5V19A2,2 0 0,0 5,21H19A2,2 0 0,0 21,19V5C21,3.89 20.1,3 19,3Z" />
  </symbol>
  <symbol id="speed" fill="#a6a2a2">
    <path d="M16.5,5.5A2,2 0 0,0 18.5,3.5A2,2 0 0,0 16.5,1.5A2,2 0 0,0 14.5,3.5A2,2 0 0,0 16.5,5.5M12.9,19.4L13.9,15L16,17V23H18V15.5L15.9,13.5L16.5,10.5C17.89,12.09 19.89,13 22,13V11C20.24,11.03 18.6,10.11 17.7,8.6L16.7,7C16.34,6.4 15.7,6 15,6C14.7,6 14.5,6.1 14.2,6.1L9,8.3V13H11V9.6L12.8,8.9L11.2,17L6.3,16L5.9,18L12.9,19.4M4,9A1,1 0 0,1 3,8A1,1 0 0,1 4,7H7V9H4M5,5A1,1 0 0,1 4,4A1,1 0 0,1 5,3H10V5H5M3,13A1,1 0 0,1 2,12A1,1 0 0,1 3,11H7V13H3Z" />
  </symbol>
  <symbol id="special-attack" fill="#e33636">
    <path d="M6.2,2.44L18.1,14.34L20.22,12.22L21.63,13.63L19.16,16.1L22.34,19.28C22.73,19.67 22.73,20.3 22.34,20.69L21.63,21.4C21.24,21.79 20.61,21.79 20.22,21.4L17,18.23L14.56,20.7L13.15,19.29L15.27,17.17L3.37,5.27V2.44H6.2M15.89,10L20.63,5.26V2.44H17.8L13.06,7.18L15.89,10M10.94,15L8.11,12.13L5.9,14.34L3.78,12.22L2.37,13.63L4.84,16.1L1.66,19.29C1.27,19.68 1.27,20.31 1.66,20.7L2.37,21.41C2.76,21.8 3.39,21.8 3.78,21.41L7,18.23L9.44,20.7L10.85,19.29L8.73,17.17L10.94,15Z" />
  </symbol>
  <symbol id="special-defense" fill="#7336e3">
    <path d="M12 1L3 5V11C3 16.55 6.84 21.74 12 23C17.16 21.74 21 16.55 21 11V5L12 1M15.08 16L12 14.15L8.93 16L9.74 12.5L7.03 10.16L10.61 9.85L12 6.55L13.39 9.84L16.97 10.15L14.26 12.5L15.08 16Z" />
  </symbol>
</svg>